# xmcd
#
# Track frame offsets: 
#        182
#        14055
#        26645
#        38672
#        48640
#        61932
#        75507
#        88197
#        102832
#        113890
#        123247
#        135192
#        149057
#        162725
#        174690
#        186267
#
# Disc length: 2708 seconds
#
# Revision: 3
# Processed by: cddbd v1.5.2PL0 Copyright (c) Steve Scherf et al.
# Submitted via: ExactAudioCopy v1.3
#
DISCID=e00a9210
DTITLE=Various Artist - Country Music Collection Cd1
DYEAR=1900
DGENRE=country
TTITLE0=George Jones -  A Good Year For The Roses
TTITLE1=Skeete Davis -  The End Of The World
TTITLE2=Carl Perkins -  Matchbox
TTITLE3=Johnny Cash  -  The Next In Line
TTITLE4=Lynn Anderson -  Rose Garden
TTITLE5=Charlie Pride -  I'm So Afraid Of Losing You Again
TTITLE6=Kenny Rogers And The First Edition -  Reuben James
TTITLE7=Loretta Lynn -  Coal Miner's Daughter
TTITLE8=Ricky Nelson -  Lonesome Town
TTITLE9=Patsy Cline -  I Love You, Honey
TTITLE10=Willie Nelson -  And Old Arms Won't Do
TTITLE11=Barbara Mandrell -  Try To Remember
TTITLE12=Jimmy Dean -  Big Bad John
TTITLE13=Donny Fargo -  Funny Face
TTITLE14=Wanda Jackson -  In The Middle Of A Heartache
TTITLE15=Jerry Lee Lewis -  Help Me Make It Through The Night (Live)
EXTD=
EXTT0=
EXTT1=
EXTT2=
EXTT3=
EXTT4=
EXTT5=
EXTT6=
EXTT7=
EXTT8=
EXTT9=
EXTT10=
EXTT11=
EXTT12=
EXTT13=
EXTT14=
EXTT15=
PLAYORDER=
